<svg width="641" height="641" viewBox="0 0 641 641" fill="none" xmlns="http://www.w3.org/2000/svg">
<rect width="641" height="641" fill="black"/>
<path fill-rule="evenodd" clip-rule="evenodd" d="M327.754 121.511H362.404V205.36H412.082H461.761V236.662H327.754V121.511ZM121.02 121.511H219.186C231.178 121.511 241.602 122.321 250.458 123.942C259.393 125.514 266.8 127.699 272.678 130.499C278.556 133.298 282.906 136.638 285.728 140.518C288.628 144.349 290.077 148.5 290.077 152.969C290.077 160.288 286.394 166.697 279.026 172.198C287.491 175.341 293.8 179.418 297.954 184.428C302.108 189.438 304.185 195.135 304.185 201.52C304.185 206.874 302.735 211.712 299.835 216.034C297.014 220.356 292.664 224.064 286.786 227.158C280.986 230.204 273.618 232.561 264.684 234.231C255.827 235.852 245.364 236.662 233.294 236.662H158.057V281.106H250.987H252.333V282.453V345.079V346.426H250.987H122.367H121.02V345.079V282.453V281.106H122.367H156.71V236.662H121.02V121.511ZM233.529 165.715C236.743 165.715 239.878 165.788 242.934 165.936C248.185 162.792 250.811 159.207 250.811 155.179C250.811 151.005 248.185 147.788 242.934 145.528C237.761 143.22 230.159 142.066 220.127 142.066H158.288V165.715H233.529ZM234.235 216.328C244.267 216.328 251.869 214.978 257.042 212.276C262.293 209.575 264.919 205.769 264.919 200.857C264.919 195.945 262.293 192.114 257.042 189.364C251.869 186.613 244.267 185.238 234.235 185.238H158.288V216.328H234.235ZM309.572 519.491V390.871V278.48H309.808L484.333 378.076H519V236.662V121.511H485.33V236.662L485.35 236.662V348.13H485.094L310.569 249.457H275.902V390.871V519.491H309.572ZM169.377 390.871H121.02V519.408L169.545 519.491C183.667 519.491 195.932 517.873 206.34 514.638C216.748 511.349 225.356 506.826 232.164 501.069C238.971 495.258 244.035 488.405 247.354 480.51C250.674 472.56 252.333 463.925 252.333 454.605C252.333 444.791 250.645 435.965 247.27 428.125C243.95 420.23 238.859 413.541 231.995 408.059C231.817 407.914 231.638 407.77 231.458 407.627V346.427L230.111 346.427V406.593C223.622 401.766 215.642 398.006 206.171 395.312C195.763 392.351 183.498 390.871 169.377 390.871ZM200.707 485.634C196.039 487.217 190.608 488.008 184.414 488.008H145.263V421.206H184.414C190.608 421.206 196.039 421.975 200.707 423.514C205.375 425.053 209.257 427.251 212.354 430.108C215.495 432.922 217.851 436.373 219.421 440.462C220.992 444.506 221.777 449.057 221.777 454.112C221.777 459.256 220.992 463.916 219.421 468.093C217.851 472.269 215.495 475.83 212.354 478.776C209.257 481.722 205.375 484.008 200.707 485.634ZM333.141 454.78C333.141 445.33 335.394 436.681 339.898 428.832C344.402 420.984 350.709 414.256 358.817 408.65C366.994 402.991 376.765 398.613 388.13 395.516C399.564 392.419 412.211 390.871 426.071 390.871C439.861 390.871 452.473 392.419 463.908 395.516C475.342 398.613 485.113 402.991 493.221 408.65C501.398 414.256 507.739 420.984 512.243 428.832C516.748 436.681 519 445.33 519 454.78C519 464.284 516.748 473.013 512.243 480.969C507.739 488.871 501.398 495.678 493.221 501.391C485.113 507.104 475.342 511.562 463.908 514.765C452.473 517.915 439.861 519.491 426.071 519.491C412.211 519.491 399.564 517.915 388.13 514.765C376.765 511.562 366.994 507.104 358.817 501.391C350.709 495.678 344.402 488.871 339.898 480.969C335.394 473.013 333.141 464.284 333.141 454.78ZM366.093 454.78C366.093 461.241 367.583 467.06 370.563 472.239C373.612 477.418 377.804 481.85 383.14 485.534C388.546 489.164 394.886 491.967 402.163 493.943C409.508 495.918 417.478 496.906 426.071 496.906C434.664 496.906 442.598 495.918 449.875 493.943C457.22 491.967 463.561 489.164 468.897 485.534C474.233 481.85 478.426 477.418 481.475 472.239C484.524 467.06 486.049 461.241 486.049 454.78C486.049 448.32 484.524 442.527 481.475 437.401C478.426 432.276 474.233 427.951 468.897 424.427C463.561 420.85 457.22 418.127 449.875 416.259C442.598 414.39 434.664 413.456 426.071 413.456C417.478 413.456 409.508 414.39 402.163 416.259C394.886 418.127 388.546 420.85 383.14 424.427C377.804 427.951 373.612 432.276 370.563 437.401C367.583 442.527 366.093 448.32 366.093 454.78ZM250.987 282.453H122.367V345.079H250.987V282.453ZM132.479 305.83V294.446H128.028V309.534H142.969V305.83H132.479ZM159.614 300.096H148.893V298.149H160.12V294.446H144.442V309.534H160.225V305.83H148.893V303.705H159.614V300.096ZM174.913 298.696L176.997 295.656C176.46 295.35 175.818 295.087 175.071 294.845C173.777 294.435 171.841 294.025 169.231 294.025C163.834 294.025 161.75 296.171 161.75 298.802C161.75 301.243 163.118 303.116 168.958 303.736C172.451 304.126 173.209 304.252 173.209 305.01C173.209 305.978 171.662 306.251 168.916 306.251C167.243 306.251 165.854 305.988 164.886 305.704C164.307 305.546 163.802 305.357 163.36 305.157L161.277 308.198C161.771 308.524 162.392 308.819 163.139 309.082C164.412 309.534 166.37 309.955 169.126 309.955C174.135 309.955 177.702 308.629 177.702 305.01C177.702 302.021 175.555 300.769 169.821 300.127C167.201 299.843 166.243 299.612 166.243 298.802C166.243 298.002 167.411 297.728 169.442 297.728C171.052 297.728 172.409 297.97 173.377 298.212C173.945 298.349 174.461 298.518 174.913 298.696ZM183.426 298.16H189.107C190.591 298.16 191.222 298.959 191.222 300.117C191.222 301.274 190.591 302.074 189.107 302.074H183.426V298.16ZM178.975 309.534H183.426L183.436 305.788H189.107C193.348 305.788 195.715 303.715 195.715 300.117C195.715 296.518 193.348 294.446 189.107 294.446H178.975V309.534ZM197.409 294.446V309.534H201.86V294.446H197.409ZM216.033 297.644L217.695 294.288C210.246 293.057 202.828 294.435 203.617 303.936C204.069 307.703 206.521 309.955 211.635 309.955C216.98 309.955 219.547 307.798 219.547 304.557C219.547 301.316 216.98 299.159 211.635 299.159C210.025 299.159 208.952 299.528 208.468 299.812C208.836 297.571 212.192 297.087 216.033 297.644ZM211.635 302.863C213.939 302.863 215.096 303.431 215.096 304.557C215.096 305.683 213.939 306.251 211.635 306.251C209.33 306.251 208.278 305.683 208.278 304.557C208.278 303.431 209.33 302.863 211.635 302.863ZM132.372 317.619L132.873 318.534H134.664L131.559 312.876H130.186L127.081 318.534H128.872L129.373 317.619H132.372ZM130.068 316.348L130.873 314.876L131.678 316.348H130.068ZM138.875 315.835L140.074 318.534H141.305L142.505 315.835V318.534H144.095V313.72H141.944L140.69 316.545L139.435 313.72H137.284V318.534H138.875V315.835ZM144.805 316.301C144.805 317.871 145.641 318.652 147.602 318.652C149.563 318.652 150.4 317.871 150.4 316.301V313.72H148.81V316.301C148.81 317.027 148.616 317.457 147.602 317.457C146.588 317.457 146.395 317.027 146.395 316.301V313.72H144.805V316.301ZM153.411 313.602C151.655 313.602 150.984 314.277 150.984 315.113C150.984 315.914 151.461 316.506 153.32 316.707C154.44 316.833 154.559 316.893 154.559 317.094C154.559 317.35 154.188 317.457 153.308 317.457C152.752 317.457 152.318 317.374 152.018 317.283C151.84 317.232 151.686 317.173 151.552 317.106L150.873 318.092C151.027 318.199 151.225 318.289 151.465 318.372C151.872 318.514 152.495 318.652 153.375 318.652C154.973 318.652 156.149 318.242 156.149 317.094C156.149 316.115 155.423 315.725 153.596 315.516C152.763 315.421 152.574 315.322 152.574 315.113C152.574 314.861 152.83 314.797 153.478 314.797C153.971 314.797 154.393 314.876 154.709 314.955C154.89 315.003 155.056 315.054 155.206 315.109L155.884 314.123C155.715 314.024 155.51 313.937 155.269 313.862C154.859 313.732 154.243 313.602 153.411 313.602ZM158.216 318.534V313.72H156.626V318.534H158.216ZM162.261 317.457C160.793 317.457 160.387 316.806 160.387 316.127C160.387 315.448 160.793 314.797 162.261 314.797C162.778 314.797 163.192 314.892 163.48 314.983C163.65 315.038 163.8 315.101 163.93 315.168L164.604 314.19C164.462 314.083 164.281 313.985 164.06 313.898C163.681 313.752 163.093 313.602 162.261 313.602C159.874 313.602 158.773 314.644 158.773 316.127C158.773 317.611 159.874 318.652 162.261 318.652C163.093 318.652 163.681 318.506 164.06 318.36C164.281 318.274 164.462 318.175 164.604 318.064L163.93 317.086C163.8 317.157 163.65 317.22 163.48 317.271C163.192 317.366 162.778 317.457 162.261 317.457ZM169.308 317.772L169.722 318.534H171.352L168.744 313.72H167.331L164.723 318.534H166.352L166.763 317.772H169.308ZM167.406 316.589L168.037 315.421L168.669 316.589H167.406ZM173.297 317.338V313.72H171.707V318.534H176.639V317.338H173.297ZM179.298 315.705C179.298 317.358 180.521 318.692 183.189 318.692C183.729 318.692 184.199 318.637 184.625 318.538L185.035 319.031H186.756L185.864 318.021C186.689 317.473 187.079 316.644 187.079 315.705C187.079 314.052 185.856 312.718 183.189 312.718C180.521 312.718 179.298 314.052 179.298 315.705ZM183.591 317.287C183.465 317.299 183.331 317.303 183.189 317.303C181.457 317.303 180.983 316.51 180.983 315.705C180.983 314.9 181.457 314.107 183.189 314.107C184.921 314.107 185.394 314.9 185.394 315.705C185.394 316.143 185.252 316.565 184.854 316.877L184.574 316.557H182.991L183.591 317.287ZM187.632 316.301C187.632 317.871 188.468 318.652 190.429 318.652C192.39 318.652 193.227 317.871 193.227 316.301V313.72H191.637V316.301C191.637 317.027 191.443 317.457 190.429 317.457C189.415 317.457 189.222 317.027 189.222 316.301V313.72H187.632V316.301ZM195.527 318.534V313.72H193.937V318.534H195.527ZM201.367 317.338H198.632L201.367 314.438V313.72H196.229V314.916H198.897L196.162 317.816V318.534H201.367V317.338ZM205.533 314.718C204.839 314.718 204.267 315.291 204.267 315.985C204.267 316.679 204.839 317.252 205.533 317.252C206.228 317.252 206.8 316.679 206.8 315.985C206.8 315.291 206.228 314.718 205.533 314.718ZM209.696 314.229L210.974 314.908C211.077 314.762 211.199 314.628 211.345 314.509C211.598 314.308 211.957 314.107 212.462 314.107C213.298 314.107 213.508 314.328 213.508 314.588C213.508 314.849 213.184 315.089 212.659 315.448L209.779 317.425V318.534H215.177V317.145H212.651L213.875 316.305C214.557 315.851 215.177 315.393 215.177 314.588C215.177 313.357 214.198 312.718 212.462 312.718C211.452 312.718 210.761 313.097 210.319 313.476C210.063 313.697 209.854 313.949 209.696 314.229ZM222.172 315.705C222.172 313.89 221.016 312.718 218.913 312.718C216.81 312.718 215.654 313.89 215.654 315.705C215.654 317.52 216.81 318.692 218.913 318.692C221.016 318.692 222.172 317.52 222.172 315.705ZM217.323 315.705C217.323 314.659 217.804 314.107 218.913 314.107C220.022 314.107 220.503 314.659 220.503 315.705C220.503 316.754 220.022 317.303 218.913 317.303C217.804 317.303 217.323 316.754 217.323 315.705ZM222.52 314.229L223.798 314.908C223.901 314.762 224.023 314.628 224.169 314.509C224.421 314.308 224.78 314.107 225.286 314.107C226.122 314.107 226.331 314.328 226.331 314.588C226.331 314.849 226.008 315.089 225.483 315.448L222.602 317.425V318.534H228V317.145H225.475L226.698 316.305C227.381 315.851 228 315.393 228 314.588C228 313.357 227.022 312.718 225.286 312.718C224.275 312.718 223.585 313.097 223.143 313.476C222.887 313.697 222.677 313.949 222.52 314.229ZM231.958 318.534H233.627V317.544H234.621V316.163H233.627V312.876H231.938L228.43 316.305V317.544H231.958V318.534ZM231.958 316.163H230.738L231.958 314.967V316.163ZM141.191 335.093L142.527 337.534H147.304L139.023 322.446H135.362L127.081 337.534H131.858L133.194 335.093H141.191ZM135.046 331.705L137.192 327.78L139.339 331.705H135.046ZM152.702 326.16H158.383C159.867 326.16 160.498 326.959 160.498 328.117C160.498 329.274 159.867 330.074 158.383 330.074H152.702V326.16ZM148.251 337.534H152.702L152.712 333.788H158.383C162.624 333.788 164.991 331.715 164.991 328.117C164.991 324.518 162.624 322.446 158.383 322.446H148.251V337.534ZM177.723 335.093L179.059 337.534H183.836L175.555 322.446H171.894L163.613 337.534H168.39L169.726 335.093H177.723ZM171.578 331.705L173.724 327.78L175.871 331.705H171.578ZM189.234 333.83V322.446H184.783V337.534H199.724V333.83H189.234ZM201.197 322.446V337.534H205.648V322.446H201.197ZM220.715 335.093L222.051 337.534H226.828L218.548 322.446H214.886L206.605 337.534H211.382L212.718 335.093H220.715ZM214.57 331.705L216.717 327.78L218.863 331.705H214.57ZM227.775 322.446V337.534H232.226V328.201L239.749 337.534H244.957V322.446H240.507V331.779L232.984 322.446H227.775Z" fill="url(#paint0_linear_160_759)"/>
<path d="M277.249 415.488L308.226 400.298V485.82H277.249V415.488Z" fill="black"/>
<path d="M517.653 225.512L486.677 240.702L486.677 155.18L517.653 155.18L517.653 225.512Z" fill="black"/>
<rect x="122.367" y="142.062" width="34.3434" height="23.6498" fill="black"/>
<rect x="122.367" y="163.935" width="34.3434" height="52.5253" fill="black"/>
<rect x="119" y="421.174" width="28.2828" height="66.6667" fill="black"/>
<defs>
<linearGradient id="paint0_linear_160_759" x1="169.397" y1="320.501" x2="474.371" y2="412.637" gradientUnits="userSpaceOnUse">
<stop stop-color="#BF1E2E"/>
<stop offset="0.16" stop-color="#D34797"/>
<stop offset="0.325" stop-color="#814297"/>
<stop offset="0.505" stop-color="#0C6BA1"/>
<stop offset="0.675" stop-color="#2CC945"/>
<stop offset="0.835" stop-color="#DEB634"/>
<stop offset="1" stop-color="#D6912A"/>
</linearGradient>
</defs>
</svg>
