<svg width="256" height="256" viewBox="0 0 256 256" fill="none" xmlns="http://www.w3.org/2000/svg">
    <circle cx="128" cy="128" r="128" fill="#19191900"/>
    <path d="M107.194 199.949C104.087 199.408 102.193 200.629 101.458 201.364C100.522 202.3 99.8533 203.503 100.656 206.98C101.458 210.456 105.469 210.724 110.818 210.189C114.126 209.858 114.874 207.174 113.826 204.668C113.455 204.646 113.083 204.606 112.718 204.53C110.142 203.992 108.136 202.213 107.194 199.949Z" fill="#FF4242"/>
    <path d="M156.2 170.551C153.465 171.018 151.299 172.302 150.931 174.087C150.308 177.118 155.3 175.692 158.865 178.544C162.432 181.396 168.76 178.901 168.76 177.296C168.76 176.284 168.19 174.563 166.518 173.072C165.39 173.715 164.088 174.086 162.698 174.086C159.977 174.086 157.584 172.675 156.2 170.551Z" fill="#FF4242"/>
    <path d="M51.4495 197.62C50.8258 200.651 55.8181 199.225 59.3834 202.077C62.9497 204.929 69.2781 202.434 69.2781 200.829C69.2781 199.225 67.8522 195.838 62.8599 194.411C57.8687 192.985 52.0742 194.59 51.4495 197.62Z" fill="#FBFF4E"/>
    <path d="M156.137 217.378C151.675 218.347 149.621 224.833 150.867 225.846C152.112 226.857 155.641 227.886 159.895 224.911C164.149 221.936 166.558 216.427 164.599 214.031C162.641 211.636 160.599 216.41 156.137 217.378Z" fill="#3561FF"/>
    <path d="M171.254 66.849C171.897 66.849 172.529 66.9645 173.134 67.1907C175.05 67.909 176.31 69.6179 176.557 71.5193C177.254 71.0716 182.041 67.9213 181.463 66.2264C180.838 64.3988 177.54 64.8 173.975 62.3038C170.408 59.8082 165.907 61.3678 165.417 64.087C165.051 66.1146 165.232 67.6962 166.531 69.7002C167.448 67.9711 169.268 66.849 171.254 66.849Z" fill="#FF4242"/>
    <path d="M93.0447 96.2334C93.0447 96.2334 90.4298 102.324 91.9825 103.472C92.2847 103.696 92.6243 103.789 93.0046 103.799C93.0543 102.945 93.1121 102.075 93.1869 101.172C93.4137 98.422 95.7537 96.2665 98.5124 96.2665C98.6606 96.2665 98.8082 96.2724 98.9574 96.2847C100.381 96.4024 101.674 97.0683 102.597 98.1578C103.405 99.1109 103.845 100.288 103.864 101.519C106.075 100.23 107.189 97.8475 106.395 96.1023C105.252 93.5875 103.758 92.2905 99.5864 91.2748C95.4135 90.2586 93.0447 96.2334 93.0447 96.2334Z" fill="#FF4242"/>
    <path d="M136.905 158.793C136.243 168.51 132.009 209.596 108.357 241.103L110.069 242.387C137.586 205.655 139.144 156.834 139.164 156.739L137.026 156.67V156.669C137.025 156.671 137.002 157.405 136.905 158.793Z" fill="white"/>
    <path d="M164.381 41.4233C164.381 34.5923 164.04 27.4381 163.268 20L161.139 20.2209C161.904 27.5825 162.24 34.6629 162.24 41.4233C162.241 57.5971 160.313 71.9359 157.715 83.9197C158.713 82.8157 159.69 81.6514 160.621 80.4148C162.824 69.144 164.38 56.0252 164.381 41.4233Z" fill="white"/>
    <path d="M152.753 102.319C150.621 108.866 148.52 114.025 146.924 117.598C146.075 119.498 145.369 120.949 144.877 121.922C144.801 122.072 144.733 122.206 144.667 122.333L145.909 124.385L145.981 124.425C146.008 124.373 150.927 115.596 155.671 100.193C155.542 100.292 155.418 100.392 155.288 100.49C154.426 101.137 153.579 101.746 152.753 102.319Z" fill="white"/>
    <path d="M130.645 98.7139C137.225 97.7708 141.793 91.6728 140.85 85.0937C139.907 78.5146 133.809 73.9457 127.23 74.8888C120.651 75.8319 116.082 81.9299 117.025 88.509C117.968 95.0881 124.066 99.657 130.645 98.7139Z" fill="white"/>
    <path d="M119.053 141.73L107.813 195.66C107.067 199.236 109.362 202.737 112.937 203.483C116.512 204.228 120.015 201.935 120.76 198.358L131.405 147.284C133.074 150.41 136.918 151.71 140.155 150.178V150.176L156.012 142.664V166.332C156.012 170.024 159.005 173.017 162.697 173.017C166.39 173.017 169.383 170.024 169.383 166.332V132.101C169.383 129.799 168.217 127.682 166.272 126.451C164.328 125.22 161.915 125.073 159.835 126.059L145.564 132.818C145.071 131.319 144.658 129.834 144.302 128.371C134.203 133.402 122.853 134.474 117.228 134.712C117.74 137.014 118.34 139.367 119.053 141.73Z" fill="white"/>
    <path d="M98.869 97.3513C96.5146 97.156 94.4469 98.9071 94.2517 101.262C94.0292 103.942 93.9249 106.323 93.9238 108.445C93.9458 113.3 94.4127 116.793 95.6995 119.674C96.3526 121.102 97.2843 122.423 98.615 123.394C99.9093 124.356 101.544 124.832 102.996 124.832C103.024 124.832 103.05 124.832 103.078 124.832C106.188 124.759 108.393 123.368 110.432 121.898C112 120.715 113.462 119.337 114.793 117.938C115.041 121.259 115.469 125.183 116.191 129.412C121.275 129.255 133.616 128.209 143.226 122.914C142.225 116.324 142.387 110.625 142.68 107.121C145.172 105.859 149.654 103.382 154.644 99.6356C162.1 94.017 170.803 85.5269 175.261 73.7014C176.09 71.4887 174.969 69.022 172.757 68.1924C170.544 67.3629 168.078 68.4839 167.248 70.6966C163.684 80.2645 156.213 87.7679 149.502 92.7944C146.158 95.3076 143.032 97.201 140.767 98.4504C139.636 99.0751 138.718 99.5393 138.097 99.8421C137.963 99.9068 137.847 99.9624 137.743 100.012L117.993 102.843C117.755 102.877 117.527 102.935 117.306 103.006C116.168 103.179 115.103 103.804 114.406 104.832C114.406 104.832 114.385 104.862 114.327 104.946C113.89 105.581 111.642 108.758 108.998 111.609C107.684 113.032 106.261 114.369 105.061 115.225C104.465 115.654 103.929 115.958 103.556 116.116C103.535 116.125 103.515 116.134 103.495 116.142C103.349 115.83 103.159 115.323 103 114.588C102.697 113.245 102.479 111.199 102.481 108.445C102.481 106.607 102.574 104.455 102.78 101.969C102.976 99.6142 101.224 97.5465 98.869 97.3513Z" fill="white"/>
    <path d="M79.2429 160.983C78.8428 164.014 82.0434 162.588 84.3293 165.44C86.6147 168.292 90.6721 165.797 90.6721 164.192C90.6721 162.588 89.758 159.2 86.5575 157.774C83.3575 156.348 79.643 157.953 79.2429 160.983Z" fill="#CC60FF"/>
    <path d="M190.774 110.253C188.226 108.563 188.102 112.064 184.536 112.866C180.969 113.667 181.43 118.408 182.872 119.113C184.313 119.818 187.759 120.483 190.445 118.234C193.132 115.985 193.321 111.943 190.774 110.253Z" fill="#6BFB54"/>
    <path d="M188.833 41.5111C190.62 40.5195 193.948 37.6265 193.984 33.9462C194.02 30.2675 190.43 28.0105 186.861 29.5337C183.292 31.057 186.433 32.9744 184.365 36.7354C182.297 40.497 187.046 42.5027 188.833 41.5111Z" fill="#FF4242"/>
    <path d="M55.9005 108.789C54.4067 109.374 51.5843 111.46 51.4222 114.96C51.2591 118.459 54.1071 121.334 57.0756 120.603C60.0445 119.871 57.55 117.41 59.3738 114.242C61.1971 111.074 57.3943 108.205 55.9005 108.789Z" fill="#FBFF4E"/>
    <path d="M215.285 142.484C213.791 143.069 210.969 145.155 210.807 148.655C210.644 152.154 213.492 155.029 216.46 154.298C219.429 153.566 216.935 151.105 218.759 147.937C220.582 144.769 216.779 141.9 215.285 142.484Z" fill="#3561FF"/>
    <path d="M187.763 152.492C186.832 155.367 189.628 157.308 193.746 159.25C197.863 161.192 199.805 155.754 197.24 152.103C194.677 148.452 191.88 148.492 190.793 148.763C189.705 149.036 188.696 149.618 187.763 152.492Z" fill="#6BFB54"/>
    <path d="M145.084 41.2494C148.763 38.573 145.073 34.5702 140.699 35.1842C136.322 35.7977 134.983 38.2013 134.682 39.2464C134.38 40.292 134.381 41.405 136.378 43.4401C138.374 45.4752 141.406 43.9258 145.084 41.2494Z" fill="#3561FF"/>
    <path d="M85.1897 55.3594C90.5382 54.8245 89.2011 48.1389 84.3875 45.9995C79.5738 43.8601 76.7659 45.5984 75.8299 46.5344C74.8939 47.4703 74.2254 48.6738 75.0276 52.1503C75.8299 55.6268 79.8413 55.8942 85.1897 55.3594Z" fill="#3561FF"/>
    <path d="M117.54 63.2302C121.347 65.1444 123.292 60.1024 120.979 56.6259C118.667 53.1494 116.048 53.12 115.025 53.3489C114.001 53.5778 113.042 54.0988 112.103 56.7666C111.163 59.4339 113.733 61.3165 117.54 63.2302Z" fill="#CC60FF"/>
    <path d="M98.8274 178.685H17V181.092H98.8274V178.685Z" fill="white"/>
    <path d="M102.037 76.5295H45.0315V78.9364H102.037V76.5295Z" fill="white"/>
    <path d="M238.065 91.5054H181.061V93.9122H238.065V91.5054Z" fill="white"/>
    <path d="M228.789 174.941H179.853V177.348H228.789V174.941Z" fill="white"/>
    <path d="M194.024 200.08H145.087V202.486H194.024V200.08Z" fill="white"/>
</svg>