<?xml version="1.0" encoding="utf-8"?>
<!-- Uploaded to: SVG Repo, www.svgrepo.com, Generator: SVG Repo Mixer Tools -->
<svg fill="#000000" width="800px" height="800px" viewBox="0 0 50 50" version="1.2" baseProfile="tiny" xmlns="http://www.w3.org/2000/svg" overflow="inherit">
  <!-- Formes en haut -->
  <!-- Forme 1 : Petite forme rouge -->
  <path d="M5 5c0 0 2-1 4 0s2 3-1 3-3-1-3-3z" fill="#FF5733" />

  <!-- Forme 2 : Petite forme bleue -->
  <path d="M15 3c0 0-1 2 1 3s3-1 2-3-2-1-3 0z" fill="#33A2FF" />

  <!-- Forme 3 : Petite forme verte -->
  <path d="M25 2c0 0 1-2 3-1s1 3-1 3-2-1-2-2z" fill="#33FF57" />

  <!-- Forme 4 : Petite forme jaune -->
  <path d="M35 4c0 0-1 2-3 1s-1-3 1-3 2 1 2 2z" fill="#FFD733" />

  <!-- Forme 5 : Petite forme violette -->
  <path d="M45 5c0 0 1-2 3-1s1 3-1 3-2-1-2-2z" fill="#8A2BE2" />

  <!-- Forme 6 : Petite forme orange -->
  <path d="M10 10c0 0-1 2 1 3s3-1 2-3-2-1-3 0z" fill="#FF8C42" />

  <!-- Forme 7 : Petite forme rose -->
  <path d="M20 8c0 0 1-2 3-1s1 3-1 3-2-1-2-2z" fill="#FF69B4" />

  <!-- Forme 8 : Petite forme turquoise -->
  <path d="M30 7c0 0-1 2-3 1s-1-3 1-3 2 1 2 2z" fill="#40E0D0" />

  <!-- Forme 9 : Petite forme marron -->
  <path d="M40 9c0 0 1-2 3-1s1 3-1 3-2-1-2-2z" fill="#A0522D" />

  <!-- Forme 10 : Petite forme grise -->
  <path d="M5 15c0 0 2-1 4 0s2 3-1 3-3-1-3-3z" fill="#808080" />

  <!-- Forme 11 : Petite forme cyan -->
  <path d="M15 13c0 0-1 2 1 3s3-1 2-3-2-1-3 0z" fill="#00CED1" />

  <!-- Forme 12 : Petite forme magenta -->
  <path d="M25 12c0 0 1-2 3-1s1 3-1 3-2-1-2-2z" fill="#FF00FF" />

  <!-- Forme 13 : Petite forme olive -->
  <path d="M35 14c0 0-1 2-3 1s-1-3 1-3 2 1 2 2z" fill="#808000" />

  <!-- Forme 14 : Petite forme corail -->
  <path d="M45 15c0 0 1-2 3-1s1 3-1 3-2-1-2-2z" fill="#FF7F50" />

  <!-- Forme 15 : Petite forme indigo -->
  <path d="M10 20c0 0-1 2 1 3s3-1 2-3-2-1-3 0z" fill="#4B0082" />

  <!-- Formes au milieu -->
  <!-- Forme 16 : Petite forme rouge -->
  <path d="M5 25c0 0 2-1 4 0s2 3-1 3-3-1-3-3z" fill="#FF5733" />

  <!-- Forme 17 : Petite forme bleue -->
  <path d="M15 23c0 0-1 2 1 3s3-1 2-3-2-1-3 0z" fill="#33A2FF" />

  <!-- Forme 18 : Petite forme verte -->
  <path d="M25 22c0 0 1-2 3-1s1 3-1 3-2-1-2-2z" fill="#33FF57" />

  <!-- Forme 19 : Petite forme jaune -->
  <path d="M35 24c0 0-1 2-3 1s-1-3 1-3 2 1 2 2z" fill="#FFD733" />

  <!-- Forme 20 : Petite forme violette -->
  <path d="M45 25c0 0 1-2 3-1s1 3-1 3-2-1-2-2z" fill="#8A2BE2" />

  <!-- Formes en bas -->
  <!-- Forme 21 : Petite forme orange -->
  <path d="M10 40c0 0-1 2 1 3s3-1 2-3-2-1-3 0z" fill="#FF8C42" />

  <!-- Forme 22 : Petite forme rose -->
  <path d="M20 38c0 0 1-2 3-1s1 3-1 3-2-1-2-2z" fill="#FF69B4" />

  <!-- Forme 23 : Petite forme turquoise -->
  <path d="M30 37c0 0-1 2-3 1s-1-3 1-3 2 1 2 2z" fill="#40E0D0" />

  <!-- Forme 24 : Petite forme marron -->
  <path d="M40 39c0 0 1-2 3-1s1 3-1 3-2-1-2-2z" fill="#A0522D" />

  <!-- Forme 25 : Petite forme grise -->
  <path d="M5 45c0 0 2-1 4 0s2 3-1 3-3-1-3-3z" fill="#808080" />

  <!-- Forme 26 : Petite forme cyan -->
  <path d="M15 43c0 0-1 2 1 3s3-1 2-3-2-1-3 0z" fill="#00CED1" />

  <!-- Forme 27 : Petite forme magenta -->
  <path d="M25 42c0 0 1-2 3-1s1 3-1 3-2-1-2-2z" fill="#FF00FF" />

  <!-- Forme 28 : Petite forme olive -->
  <path d="M35 44c0 0-1 2-3 1s-1-3 1-3 2 1 2 2z" fill="#808000" />

  <!-- Forme 29 : Petite forme corail -->
  <path d="M45 45c0 0 1-2 3-1s1 3-1 3-2-1-2-2z" fill="#FF7F50" />

  <!-- Forme 30 : Petite forme indigo -->
  <path d="M10 48c0 0-1 2 1 3s3-1 2-3-2-1-3 0z" fill="#4B0082" />

  <!-- Grimpeur en noir (ajouté à la fin) -->
  <path fill="#000000" d="M35.009 25.542c-.327-1.293-1.973-2.314-3.21-1.716l-4.799 2.174v-8.584l8.433-13.243c.612-.967.376-2.249-.609-2.869-.973-.609-2.24-.326-2.787.62l-7.067 11.255-4.261.011c-.273 0-.544.044-.818.152l-7.366 2.869-3.795-5.715c-.624-.956-1.914-1.239-2.887-.62s-1.257 1.912-.633 2.879l4.736 7.127c.536.826 1.662 1.195 2.613.804l5.441-2.097v9.411l-7.397 16.387c-.558 1.251.054 2.625 1.356 3.354 1.302.729 2.801.304 3.342-.945l5.951-13.582c.524.152 1.093.219 1.673.219.536 0 1.061-.098 1.531-.272l6.681-3.108 1.464 5.857c.326 1.303 1.656 2.097 2.97 1.771 1.312-.326 2.098-1.642 1.77-2.945l-2.332-9.194zm-6.009-3.454v1.553c10-5.018 13.878-22.206 13.878-23.641h-1.399c-.525 3.585-4.479 17.926-12.479 22.088zm-7.092-9.658c2.046 0 3.708-1.64 3.708-3.672 0-2.031-1.662-3.684-3.708-3.684-2.046 0-3.708 1.652-3.708 3.684s1.662 3.672 3.708 3.672zm3.092 37.57h2v-16.568l-2 1.568z"/>
</svg>